<svg xmlns="http://www.w3.org/2000/svg" width="32" height="32" viewBox="0 0 32 32">
  <title>icon.eReader.v2</title>
  <g>
    <path d="M23.09932,5.58011H8.962A1.59864,1.59864,0,0,0,7.33333,7.14367V24.92925A1.58533,1.58533,0,0,0,8.8969,26.49281H23.0993a1.54334,1.54334,0,0,0,1.56356-1.56356V7.14367a1.50537,1.50537,0,0,0-1.56354-1.56356h0ZM15.99812,25.5156a0.97927,0.97927,0,1,1,1.04238-.97723,1.01668,1.01668,0,0,1-1.04238.97723h0Zm7.1012-2.60595H8.962V7.14367H23.09932v15.766h0Z"/>
    <g>
      <path d="M20.61338,9.99038h-9.186a0.456,0.456,0,0,1,0-.9121h9.12081a0.44532,0.44532,0,0,1,.456.456,0.43566,0.43566,0,0,1-.3909.456h0Z"/>
      <path d="M20.61338,12.85692h-9.186a0.456,0.456,0,0,1,0-.9121h9.12081a0.44532,0.44532,0,0,1,.456.456,0.43071,0.43071,0,0,1-.3909.456h0Z"/>
      <path d="M20.61338,15.59317h-9.186a0.456,0.456,0,0,1,0-.9121h9.12081a0.44532,0.44532,0,0,1,.456.456,0.43566,0.43566,0,0,1-.3909.456h0Z"/>
      <path d="M20.61338,18.32942h-9.186a0.456,0.456,0,0,1,0-.9121h9.12081a0.44532,0.44532,0,0,1,.456.456,0.43566,0.43566,0,0,1-.3909.456h0Z"/>
      <path d="M20.61338,21.13081h-9.186a0.456,0.456,0,0,1,0-.9121h9.12081a0.44532,0.44532,0,0,1,.456.456,0.43566,0.43566,0,0,1-.3909.456h0Z"/>
    </g>
  </g>
</svg>
