<?xml version="1.0" encoding="utf-8"?>
<!-- Generator: Adobe Illustrator 20.1.0, SVG Export Plug-In . SVG Version: 6.00 Build 0)  -->
<svg version="1.1" id="Layer_1" xmlns="http://www.w3.org/2000/svg" xmlns:xlink="http://www.w3.org/1999/xlink" x="0px" y="0px"
	 viewBox="0 0 48 48" style="enable-background:new 0 0 48 48;" xml:space="preserve">
<style type="text/css">
	.st0{fill:#FFFFFF;}
</style>
<title>instagram.icon.icon</title>
<path class="st0" d="M34.5,10.4h-21c-2,0-3.6,1.6-3.6,3.6v21c0,2,1.6,3.6,3.6,3.6h21c2,0,3.6-1.6,3.6-3.6V14
	C38.1,12,36.5,10.4,34.5,10.4z M24,19C24,19,24,19,24,19c3.1,0,5.6,2.4,5.7,5.5c0,3-2.3,5.4-5.3,5.5c-3,0.1-5.6-2.3-5.7-5.3
	C18.6,21.6,21,19.1,24,19z M34.9,34.2C34.9,34.2,34.9,34.2,34.9,34.2c0,0.6-0.5,1.1-1.1,1.1H14.2c0,0,0,0,0,0
	c-0.6,0-1.1-0.5-1.1-1.1V22.3h2.6c-0.2,0.8-0.4,1.6-0.4,2.4c0.1,4.8,4,8.6,8.8,8.5c0,0,0,0,0,0c4.8,0.1,8.7-3.7,8.8-8.5
	c0-0.8-0.1-1.6-0.4-2.4h2.5V34.2z M34.9,17.8c0,0.7-0.6,1.3-1.3,1.3h-3.2c-0.7,0-1.3-0.6-1.3-1.3v-3c0-0.7,0.6-1.3,1.3-1.3h0h3.2
	c0.7,0,1.3,0.6,1.3,1.3V17.8z"/>
</svg>
