<?xml version="1.0" encoding="utf-8"?>
<!-- Generator: Adobe Illustrator 20.1.0, SVG Export Plug-In . SVG Version: 6.00 Build 0)  -->
<svg version="1.1" id="Layer_1" xmlns="http://www.w3.org/2000/svg" xmlns:xlink="http://www.w3.org/1999/xlink" x="0px" y="0px"
	 viewBox="0 0 48 48" style="enable-background:new 0 0 48 48;" xml:space="preserve">
<style type="text/css">
	.st0{fill:#FFFFFF;}
</style>
<title>twitter.icon.svg</title>
<path class="st0" d="M39.9,14.2c-1.2,0.5-2.4,0.9-3.7,1c1.3-0.8,2.4-2.1,2.8-3.6c-1.3,0.8-2.7,1.3-4.1,1.6c-2.4-2.6-6.5-2.7-9.1-0.3
	c-1.7,1.6-2.4,3.9-1.9,6.2c-5.2-0.3-10-2.7-13.3-6.8c-1.7,3-0.8,6.7,2,8.6c-1,0-2-0.3-2.9-0.8l0,0.1c0,3.1,2.2,5.7,5.2,6.3
	c-1,0.3-1.9,0.3-2.9,0.1c0.8,2.6,3.3,4.4,6,4.5c-2.3,1.8-5.1,2.8-8,2.8c-0.5,0-1,0-1.5-0.1c8.5,5.5,19.9,3,25.4-5.6
	c1.9-3,2.9-6.4,2.9-9.9c0-0.3,0-0.6,0-0.8C37.9,16.6,39,15.5,39.9,14.2z"/>
</svg>
