<?xml version="1.0" encoding="utf-8"?>
<!-- Generator: Adobe Illustrator 20.1.0, SVG Export Plug-In . SVG Version: 6.00 Build 0)  -->
<svg version="1.1" id="Layer_1" xmlns="http://www.w3.org/2000/svg" xmlns:xlink="http://www.w3.org/1999/xlink" x="0px" y="0px"
	 viewBox="0 0 32 32" style="enable-background:new 0 0 32 32;" xml:space="preserve">
<title>x.close.icon</title>
<path id="XMLID_1_" d="M17.9,16l5.7-5.7c0.5-0.5,0.5-1.4,0-1.9c-0.5-0.5-1.4-0.5-1.9,0L16,14.1l-5.7-5.7C9.9,7.8,9,7.8,8.5,8.3
	C8,8.9,8,9.7,8.5,10.2l0,0l5.7,5.7l-5.7,5.7c-0.5,0.5-0.5,1.4,0,1.9s1.4,0.5,1.9,0l5.7-5.7l5.7,5.7c0.5,0.5,1.4,0.5,1.9,0
	c0.5-0.5,0.5-1.4,0-1.9c0,0,0,0,0,0L17.9,16z"/>
</svg>
