<?xml version="1.0" encoding="utf-8"?>
<!-- Generator: Adobe Illustrator 20.1.0, SVG Export Plug-In . SVG Version: 6.00 Build 0)  -->
<svg version="1.1" id="Layer_1" xmlns="http://www.w3.org/2000/svg" xmlns:xlink="http://www.w3.org/1999/xlink" x="0px" y="0px"
	 viewBox="0 0 48 48" style="enable-background:new 0 0 48 48;" xml:space="preserve">
<style type="text/css">
	.st0{fill:#FFFFFF;}
</style>
<title>youtube.icon.svg</title>
<g>
	<path class="st0" d="M16.3,6.3l-2.4,4.7l-2.4-4.7H8.3l4.4,7.5l0,0v5.8H15v-5.8l0,0l4.4-7.5C19.4,6.3,16.3,6.3,16.3,6.3z"/>
	<path class="st0" d="M22.9,10.7c0.6,0,1.1,0.5,1.1,1.1v4.4c0,0.6-0.5,1.1-1.1,1.1c-0.6,0-1.1-0.5-1.1-1.1v-4.4
		C21.8,11.2,22.3,10.7,22.9,10.7z M22.9,8.5c-1.8,0-3.4,1.5-3.4,3.3v4.4c0,1.9,1.6,3.3,3.4,3.3c1.8,0,3.3-1.5,3.3-3.3v-4.4
		C26.2,10,24.7,8.5,22.9,8.5L22.9,8.5L22.9,8.5z"/>
	<path class="st0" d="M33,8.5v8.7c-1,0.8-2.2,1.3-2.2-1.6V8.5h-2.2v7.6h0c0,1.8,0.4,5.1,4.5,2.4v1h2.2v-11H33z"/>
	<path class="st0" d="M36.4,30.6c-0.6,0-1.1,0.5-1.1,1.1c0,0,0,0,0,0v1.1h2.2v-1.1C37.5,31.1,37,30.6,36.4,30.6z"/>
	<path class="st0" d="M26.3,31.7v5.8c0.8,0.7,2.2,0.8,2.2-0.3v-5.2C28.5,31,27.4,30.6,26.3,31.7z"/>
	<path class="st0" d="M41.8,26.4c-0.1-1.2-0.6-2.3-1.4-3.1c-0.9-0.8-2-1.3-3.2-1.3c-2.5-0.1-8.1-0.2-13-0.2S13.3,21.9,10.8,22
		c-1.2,0-2.3,0.5-3.2,1.3c-0.8,0.8-1.3,1.9-1.4,3.1C6.1,29,6,29.9,6,31.2c0,1.3,0.1,3.2,0.2,5.8c0.1,1.2,0.6,2.3,1.4,3.1
		c0.9,0.8,2,1.3,3.2,1.3c2.5,0.1,8.5,0.2,13.4,0.2s10.5-0.1,13-0.2c1.2,0,2.3-0.5,3.2-1.3c0.8-0.8,1.3-1.9,1.4-3.1
		c0.1-2.2,0.2-4.1,0.2-5.8C42,29.5,41.9,28.6,41.8,26.4z M12.8,39.5h-2.2v-11H8.3v-2.2H15v2.2h-2.2C12.8,28.4,12.8,39.5,12.8,39.5z
		 M21.8,39.5h-2.2v-1c-4.3,2.4-4.5,0.1-4.5-1.7h0v-6.1h2.2v6.1c0,1.3,1.3,1.2,2.2,0.4v-6.5h2.2C21.8,30.6,21.8,39.5,21.8,39.5z
		 M30.8,37.2c0,2.3-2.4,3-4.5,1.2v1.1H24V26.2h2.2v3.6c2.2-2.2,4.5-1.4,4.5,0.8L30.8,37.2L30.8,37.2z M39.8,32.8v1.1h-4.5v2.2
		c0,0.6,0.5,1.1,1.1,1.1c0.6,0,1.1-0.5,1.1-1.1V35h2.2v1.1c0,1.9-1.6,3.3-3.4,3.3c-1.8,0-3.3-1.5-3.3-3.3v-4.4
		c0-1.9,1.6-3.3,3.4-3.3c1.8,0,3.3,1.5,3.3,3.3L39.8,32.8L39.8,32.8z"/>
</g>
</svg>
