<svg width="32" height="32" viewBox="0 0 32 32">
  <title>youtube.icon.svg</title>
  <g>
    <path d="M12.59553,8.03125l-1.07678,2.135L10.442,8.03125H9.0686l1.94051,3.38294,0.01165-.00777v2.60083h0.996V11.40642l0.01066,0.00777,1.9415-3.38294H12.59553Z"  />
    <path d="M15.50275,10.02325a0.50472,0.50472,0,0,1,.498.498v1.992a0.498,0.498,0,0,1-.996,0v-1.992A0.50406,0.50406,0,0,1,15.50275,10.02325Zm0-.996a1.49815,1.49815,0,0,0-1.494,1.494v1.992a1.494,1.494,0,1,0,2.988,0v-1.992a1.49815,1.49815,0,0,0-1.494-1.494h0Z" />
    <path d="M19.98475,9.02725V12.949c-0.43475.36185-.996,0.57967-0.996-0.711V9.02725h-0.996v3.41312h0.002c0.01454,0.82379.18864,2.30614,1.99,1.101v0.46591h0.996v-4.98h-0.996Z" />
    <path d="M21.47875,18.98725a0.49769,0.49769,0,0,0-.498.498v0.498h0.996v-0.498A0.49832,0.49832,0,0,0,21.47875,18.98725Z"/>
    <path d="M16.99675,19.48525v2.6145c0.33754,0.33757.996,0.3735,0.996-.1245v-2.3344C17.99275,19.14284,17.49475,18.98725,16.99675,19.48525Z"/>
    <path d="M23.88708,17.08182a2.07162,2.07162,0,0,0-2.03682-1.9969c-1.08544-.05346-3.57056-0.08167-5.75419-0.08167s-4.84484.02721-5.93028,0.08167a2.07144,2.07144,0,0,0-2.03672,1.9969c-0.06424,1.1691-.09731,1.59221-0.09731,2.17775q0,0.877.09731,2.63014a2.07122,2.07122,0,0,0,2.03672,1.99678c1.08544,0.05358,3.74765.08075,5.93028,0.08075s4.66775-.02717,5.75419-0.08075a2.0714,2.0714,0,0,0,2.03682-1.99678q0.08172-1.462.08167-2.63014C23.96875,18.47951,23.94156,18.05641,23.88708,17.08182ZM11.02075,22.97124h-0.996v-4.98h-0.996v-0.996h2.988v0.996h-0.996v4.98Zm3.984,0h-0.996V22.50534c-1.89379,1.06213-1.97547.03406-1.99-.78883h-0.002V18.98824h0.996v2.7439c0,0.60208.56125,0.54372,0.996,0.18087V18.98824h0.996v3.983Zm3.984-1.00962c0,1.04072-1.066,1.3442-1.992.535v0.47467h-0.996v-5.976h0.996v1.6185c0.996-.996,1.992-0.6225,1.992.3735v2.97438Zm3.984-1.97838v0.498h-1.992v0.996a0.498,0.498,0,0,0,.996,0v-0.498h0.996v0.498a1.494,1.494,0,0,1-2.988,0v-1.992a1.494,1.494,0,0,1,2.988,0v0.498Z" />
  </g>
</svg>
