<svg id="Layer_1" data-name="Layer 1" xmlns="http://www.w3.org/2000/svg" viewBox="0 0 21.79 15.94">
  <title>book</title>
  <path d="M26.3,9.09a13.48,13.48,0,0,0-10.37-.16A13.4,13.4,0,0,0,5.6,9.12a0.91,0.91,0,0,0-.48.86V22.91a0.91,0.91,0,0,0,.38.83,1,1,0,0,0,.93.06,11.72,11.72,0,0,1,9.12,0s0,0,0,0a0.06,0.06,0,0,1,.06,0,0.73,0.73,0,0,0,.13,0H16a0.54,0.54,0,0,0,.22,0,0.06,0.06,0,0,0,.06,0,0.73,0.73,0,0,1,.13,0,11.74,11.74,0,0,1,9.12,0,0.89,0.89,0,0,0,.42.1,1.08,1.08,0,0,0,.54-0.16,1,1,0,0,0,.45-0.83V10A1.07,1.07,0,0,0,26.3,9.09ZM25,21.5a13.62,13.62,0,0,0-9,.35,13.58,13.58,0,0,0-9-.35V10.62a11.58,11.58,0,0,1,8.54.22s0,0,0,0a0.06,0.06,0,0,1,.06,0,0.73,0.73,0,0,0,.13,0h0.35a0.12,0.12,0,0,0,.1,0s0.06,0,.1,0,0.06,0,.06,0A11.8,11.8,0,0,1,25,10.62V21.5h0Z" transform="translate(-5.12 -7.96)" fill="#444"/>
  <path d="M16,18.82A0.78,0.78,0,0,1,15.2,18V14.27a0.77,0.77,0,0,1,1.54,0V18A0.76,0.76,0,0,1,16,18.82Z" transform="translate(-5.12 -7.96)" fill="#444"/>
</svg>
