<svg id="fa8d67bf-503d-48ad-bb18-162b3266822e" data-name="Layer 1" xmlns="http://www.w3.org/2000/svg" viewBox="0 0 96.14 96.14"><title>circle.x</title><path id="ca4b07fd-c801-419b-b48c-c30e2784f9ed" data-name="&lt;Compound Path&gt;" d="M48.07,96.14a48.07,48.07,0,1,1,34-14.06h0A48,48,0,0,1,48.07,96.14Zm0-90.48a42.41,42.41,0,1,0,30,12.41A42.29,42.29,0,0,0,48.07,5.66Z" transform="translate(0 0)" fill="#231f20"/><polygon id="65a159bf-2cb9-498f-88ab-987c41f314cb" data-name="&lt;Path&gt;" points="65.2 34.95 61.2 30.94 48.07 44.07 34.95 30.94 30.94 34.95 44.07 48.07 30.94 61.2 34.95 65.2 48.07 52.08 61.2 65.2 65.2 61.2 52.08 48.07 65.2 34.95" fill="#231f20"/></svg>