<svg xmlns="http://www.w3.org/2000/svg" viewBox="0 0 792 612"><circle fill="#fff" cx="187.1" cy="345.8" r="149.1"/><g><path d="M396.3,99.1h5.5l40.1,58.1V99.1h5.2v67.2h-5.1l-40.5-58.5v58.5h-5.1V99.1z"/><path d="M457.7,141.8c0-13.6,7.9-24.7,20.7-24.7c12.3,0,19.1,9.9,18.1,23.6h-33.2c0,0.3,0,0.8,0,1.1c0.1,11,4.7,21.1,16.3,21.1 c6.2,0,11.3-2.5,13.9-4.5l2.2,4.1c-3,2.2-8.6,4.9-16.4,4.9C464.5,167.4,457.7,155.6,457.7,141.8z M491.2,136.4 c-0.1-7.3-3.8-14.7-13-14.7c-8.4,0-13.2,6.5-14.6,14.7H491.2z"/><path d="M502.1,118.2h5.7l11.7,40.1l12.6-40.1h5.1l12.6,40.2l11.8-40.2h5.3l-14.5,48.2h-4.8l-13-40.6l-13,40.6h-4.8L502.1,118.2z" /><path d="M613.3,141l-22.5-41.9h6.3l19.1,36.3h0.2l19.1-36.3h5.7L618.8,141v25.3h-5.5V141z"/><path d="M636.6,142.3c0-12.1,6.5-25.2,21.6-25.2c15.1,0,22.1,13,22.1,25c0,12.1-6.9,25.3-22,25.3 C643.1,167.4,636.6,154.4,636.6,142.3z M674.7,142.3c0-10.8-5.8-20.7-16.8-20.7c-10.9,0-15.9,9.7-15.9,20.5 c0,10.9,5.4,20.8,16.3,20.8C669.4,162.9,674.7,153.2,674.7,142.3z"/><path d="M690.4,118.2h5.3v8.4c1.8-3.5,6.2-9.5,12.9-9.5c2.2,0,3.8,0.5,4.6,0.8l-1.3,4.9c-0.8-0.3-1.9-0.7-3.9-0.7 c-6.7,0-11,7.9-12.3,10.7v33.5h-5.3V118.2z"/><path d="M722.9,93.6h5.2v72.7h-5.2V93.6z M728.6,139.3l21.1-21.1h6.6L735,139.3l22.4,27.1h-6.6L728.6,139.3z"/></g><g><path d="M396.4,200.3H411c14.1,0,23,7,23,19c0,12.1-8.4,19.7-23.6,19.7h-8.5v28.6h-5.6V200.3z M410.3,234.2 c12.8,0,18.1-5.9,18.1-14.7c0-8.4-5-14.4-17.9-14.4h-8.6v29.2H410.3z"/><path d="M442.5,253.4v-34h5.3v32.9c0,7.1,2.5,11.6,9.9,11.6c7.2,0,13.1-6.8,14.7-9.6v-34.9h5.2v38.9c0,3.8,0.4,7.5,0.9,9.3h-5.4 c-0.3-1.6-0.7-5.2-0.7-7.9c-2.3,3.6-7.8,9-16,9C446.5,268.6,442.5,262,442.5,253.4z"/><path d="M490.8,265v-70.2h5.2v29c2.9-3.3,7.7-5.6,12.6-5.6c13.7,0,20.4,11,20.4,25c0,13.5-9.1,25.3-23.8,25.3 C499.5,268.6,494.1,267.2,490.8,265z M523.5,243.5c0-10.5-4-20.5-15.8-20.5c-4.1,0-9,2.4-11.7,5.5v33.7c2.2,1.1,5.6,1.9,9.4,1.9 C517.6,264.1,523.5,253.5,523.5,243.5z"/><path d="M539.8,194.8h5.3v72.7h-5.3V194.8z"/><path d="M559.4,205.1c0-2.3,1.8-4,3.9-4c2.2,0,4,1.7,4,4c0,2.3-1.8,4.1-4,4.1C561.2,209.2,559.4,207.4,559.4,205.1z M560.7,219.3 h5.4v48.2h-5.4V219.3z"/><path d="M576.2,243.4c0-15.2,8.8-25.1,21.2-25.1c7.2,0,11.7,2.7,14.3,5l-2.7,3.8c-2.7-2.3-6.4-4.3-11.7-4.3 c-10.7,0-15.5,9.3-15.5,20.4c0,10.7,4.7,20.9,15.4,20.9c5.6,0,10.2-2.4,12.3-4.3l2.3,3.9c-2.6,2.3-7.7,4.9-14.9,4.9 C583,268.6,576.2,256.3,576.2,243.4z"/></g><g><path d="M394.9,368.7v-67.2h14.3v55.7h25v11.5H394.9z"/></g><g><path d="M451.6,313.1c-4.7,0-8.2-3.7-8.2-8.1c0-4.2,3.4-7.9,8.2-7.9c4.7,0,8.3,3.6,8.3,7.9C459.9,309.4,456.4,313.1,451.6,313.1z M444.9,368.7v-49.2h13.5v49.2H444.9z"/><path d="M483.7,296v27.4c2.2-2.2,6.6-5,12-5c12.3,0,20.9,8.5,20.9,25.4c0,16.8-11.3,26.1-26.1,26.1c-11.1,0-17.9-2.8-20.2-3.9v-70 H483.7z M483.7,358.3c0.9,0.3,3,1.1,6.8,1.1c7.5,0,11.9-5.6,11.9-15.6c0-9.2-3.1-14.8-10.4-14.8c-4.2,0-7.5,2.7-8.3,3.7V358.3z"/><path d="M554.3,331.3c-0.8-0.5-2.3-1.1-5.2-1.1c-6,0-9.5,5.3-10.7,7.5v31H525v-49.2h13.4v6.7c2.1-3.6,6.2-7.9,12.4-7.9 c3.6,0,5.6,0.7,6.7,1.3L554.3,331.3z"/><path d="M589.9,368.7c-0.4-1.2-0.7-3.7-0.8-5.3c-2.2,2.6-6.9,6.5-13.8,6.5c-8.4,0-14.8-5-14.8-13.8c0-12.8,13.2-17.5,26.2-17.5h1.7 v-2.8c0-4.2-1.7-6.9-8-6.9c-6.4,0-10.7,3.3-12.5,4.6l-5.9-8.2c2.9-2.6,9.4-7.1,19.9-7.1c13.4,0,19.8,5.1,19.8,18.2v17.7 c0,6.7,0.7,11.4,1.4,14.5H589.9z M588.3,346.9h-1.7c-7.9,0-13.3,2.3-13.3,8.1c0,3.6,2.9,5.1,6,5.1c4.8,0,7.7-2.8,9.1-4.3V346.9z"/><path d="M641.7,331.3c-0.8-0.5-2.3-1.1-5.1-1.1c-6,0-9.5,5.3-10.7,7.5v31h-13.4v-49.2h13.4v6.7c2.1-3.6,6.2-7.9,12.4-7.9 c3.6,0,5.6,0.7,6.7,1.3L641.7,331.3z"/><path d="M649.8,319.5h14.3l10.9,32.4h0.5l10-32.4h13.8l-20.3,54.4c-4.3,11.6-9.5,18.4-22.9,18.4c-4.1,0-6.6-0.6-7.6-0.9l1.9-10.6 c0.7,0.2,1.8,0.5,4.7,0.5c6.9,0,9.3-3.3,11.2-8.6l1.8-5L649.8,319.5z"/></g><g><g><path fill="#FFFFFF" d="M214.4,290.2c-2-3.8-7.8-4.7-13.9-4.4c-4.1,0.2-6.4,0.6-9.6,1.5c-3.4,1-8,3.3-6,8c1.3,3.2,5.9,4.5,9.2,5.6 c3.8,1.3,8,2.3,10.9,4c1.7,1,3.5,3.6,5.9,3.3c2.4-0.3,3.9-5.1,4.4-7.5C216,297,215.7,292.5,214.4,290.2z"/></g></g><path d="M186.5,190.6c-85.1,0-154.4,69.2-154.4,155.2c0,86,69.8,155.3,154.5,155.3c86,0,155.7-69.2,155.7-155.2 C342.2,259.8,272.5,190.6,186.5,190.6z M95.9,454.7c-2.8-2.3-4-4.3-5.7-7c-13.2-21.1-20.6-95.7-3.6-121c5.4-8.9,11.1-4.8,9.2,2.1 c-3.3,15.4-1.3,24,6.2,40.7c11.8,24.8,48.1,59.3,57.7,71.8c16.5,21.4,22,37,21.9,41.2c-0.1,3.2-0.7,5.3-6.4,4.8 C145.5,485,116.6,472.6,95.9,454.7z M323.5,383.9c-1.2,3.6-2.6,8.2-5.5,6.1c-5.5-4.1-17.8-12-29.6-16.4c-0.6-0.1-0.6-1-0.3-1.5 c0.8-1.9,1.2-3.6,1.6-5.8c0.3-2.1,1.8-3.4,2.9-5.1c3-4.9,4.7-13.3,5.4-18.6c0.5-4.9,0.2-10.3-0.8-14.8c-0.4-1.9-1.8-4.4-1.8-6.5 c0-2.1,1-4.3,1.2-6.7c0.6-7.1-8.4-13.1-13.3-15.3c-11.1-5.2-22.9-9.8-35-16.2c-6.8-3.6-12.2-11.4-17.7-15.6 c-5.5-4.2-23.2-11.2-30.2-13.1c-1.6-0.5-2.2-1.2-2.4-2.4c-2.9-13.9-11.1-29.2-26.4-41c-5-3.9,0.6-6,7.4-6.4 C286.5,200.7,348.4,299.8,323.5,383.9z M279.8,336.3c-0.1-0.5-0.3-2.4-0.3-2.8c0-1,2-2.3,3-3.1c1.4-1.1,3.1-2.4,4.1-2.9 c0.4-0.2,0.6,0.3,0.7,0.4c4,6,2.5,20.9-0.4,28c-0.3,0.7-0.9,1-1.2,0.5c-1.5-3.2-3.6-6.1-6.1-7.6c-0.5-0.4-0.5-1.1-0.5-1.2 C280,344.1,280.4,340.4,279.8,336.3z M149.8,270c5.1-4.1,19.9-9.7,37.6-5.4c5,1.2,18,5.5,26.7,9.7c8.5,3.9,14.5,11.1,22.4,15.5 c10,5.5,23.7,8.1,34.2,13.3c2.1,1,7.7,4.8,6.2,5.6c-5.3,2.3-14.6,1-20.1-0.3c-2.8-0.6-6.3-1.4-7.6,1.1c-1.5,2.7-0.4,6.8,0.7,9.3 c1.4,3,3.3,5.2,5.8,6.3c3.4,1.6,8.1,1.7,11.3,3.5c5.9,3.4,6.1,14.4,2.2,19.9c-3.2,4.6-12.8,5.4-21.7,5c-8.6-0.4-18.6-1.3-24.9,1.3 c-6.2,2.6-9.2,7-12.9,12.4c-0.5,0.7-1.3,0.8-2.1,0.3c-22-13.2-49.9-20.1-64.7-41.1c-3.7-5.2-6-11.5-7.2-19 C132.7,289.9,140.2,277.6,149.8,270z M115.5,230.4c-4.3-0.5-4.4-3.7-2.6-4.9c4.7-3.3,12.4-7.3,20.1-10.4c2.3-0.9,3.5-1.2,5.6-0.9 c5.7,0.6,15.1,4.4,25.9,12.1c12.9,9.2,24.5,26.8,16.8,25.4c-4.9-0.8-2.8-0.6-8.5-1.2c-5.8-0.5-9.7,0.1-12.4-0.2 c-1.2-0.1-2.1-0.9-2.9-1.6C146.6,238.9,134,232.7,115.5,230.4z M230.7,372.9c0.9-2.5,1.9-3.9,3.8-5.1c3.6-2.3,9.6-2.4,15.4-2.8 c5.6-0.4,11.6-0.7,15.6-2.6c2.4-1.1,4.8-4.3,8.6-2.7c1.8,0.8,2.7,2.4,3.3,4c0.6,1.8,1,3.6,0.8,6c-0.5,6.9-6.2,10.3-7.2,16.8 c-0.1,1-0.3,2.5-0.8,3c-4.3,4.4-12.8,3.5-20.5,2.7c-2.8-0.3-5.5-0.3-7.3-1.2c-1.3-0.6-2.6-1.9-3.7-2.9c-2.5-2.3-3.9-4-6.3-6.7 c-0.8-0.9-2.7-2.6-2.9-3.7C229.3,376.8,230.4,373.9,230.7,372.9z M82.8,250.3c1.1-1.1,1.8-1.6,3.3-2.1c19.9-4.9,39.8-1.8,54.1,4.6 c3.2,1.4,4.7,3.4,2.6,4.8c-2.7,1.6-10.8,6.9-15.3,11.1c-1.3,1.1-3.6,1.2-5,1c-16.8-2.2-25.6-3.5-50.8,6.1c-3.9,1.6-7.4-0.6-5.6-3.6 C69.4,266.1,77.2,256,82.8,250.3z M47.8,318c0.3-1.8,0.5-2.3,1.5-3.7c1.7-2.6,22.5-25.9,54.8-31.6c4.2-0.6,7.3-0.3,8,1.4 c1.2,3-1.3,4.7-4.2,6.4c-51.7,30.9-48,76.9-48.5,95.7c0.2,7.7-5.4,9.1-6.8,5.5C46.5,375.1,41.4,349.1,47.8,318z M113,354.1 c-9.1-22.2-3.2-42.1,0.9-49.7c2-3.8,4-6.3,6.6-5.6c2.8,0.8,3.5,3.7,3.9,9c2.9,44.3,29.7,59.2,63.3,74.9 c26.6,13.6,56.8,29.1,82.1,66.7c3.8,5.4,4.4,8.7,0.1,11.8c-15.4,10.5-29.4,17.9-49.9,22.7c-3.1,0.7-6.3,0.2-9-6.9 C182.5,403.8,134.7,407.1,113,354.1z M289,444.2c-4.3,4.3-6.8,0.9-8.2-1.8c-6.1-12.9-12-23.7-21.5-34.1c-1.7-1.7-0.4-4,2.1-3.8 c3.1,0.2,5.1,0.1,8.6-1.4c2.9-1.2,6.2-5.3,7.9-11.1c1.2-4.2,1.3-5.5,3.9-5.8c0.6-0.1,1.8,0.1,2.5,0.3c3.2,0.9,6.6,3.5,9.1,5.4 c6.4,4.9,15.9,15.6,17.6,19.1c1.1,2.2,0,3.7-0.6,5C306.9,422.8,296.4,436.9,289,444.2z"/><path d="M194.2,300.9c3.8,1.3,8,2.3,10.9,4c1.7,1,3.5,3.6,5.9,3.3c2.4-0.3,3.9-5.1,4.4-7.5c0.7-3.6,0.3-8.1-0.9-10.4 c-2-3.8-7.8-4.7-13.9-4.4c-4.1,0.2-6.4,0.6-9.6,1.5c-3.4,1-8,3.3-6,8C186.3,298.4,190.9,299.8,194.2,300.9z"/></svg>
